<svg version="1.0" xmlns="http://www.w3.org/2000/svg"
 width="960.000000pt" height="540.000000pt" viewBox="0 0 1920.000000 1080.000000"
 preserveAspectRatio="xMidYMid meet" preserveAspectRatio="none">

<g transform="translate(0.000000,1080.000000) scale(0.100000,-0.100000)"
fill="#000000" stroke="none">
<path d="M12677 9526 c-7 -8 -55 -134 -107 -280 -89 -254 -92 -267 -77 -290
13 -19 31 -26 89 -36 337 -56 572 -220 572 -400 0 -64 -18 -104 -70 -154 -104
-101 -297 -102 -538 -2 -97 40 -126 44 -148 19 -20 -22 -138 -384 -138 -421 0
-43 24 -68 116 -122 271 -160 457 -220 684 -220 129 0 228 17 336 59 130 50
201 98 314 211 119 119 171 201 219 346 150 448 -84 908 -575 1135 -264 122
-627 205 -677 155z"/>
<path d="M5244 9289 c-11 -4 -25 -13 -32 -21 -14 -17 -312 -1805 -312 -1871 0
-54 28 -107 70 -131 30 -18 80 -22 454 -43 232 -12 426 -22 433 -23 8 0 11
-40 10 -141 -2 -182 -10 -175 193 -183 80 -4 207 -11 283 -16 142 -10 168 -6
183 30 3 8 10 71 15 140 4 69 8 126 9 128 0 2 48 0 108 -4 104 -6 108 -6 129
17 19 21 22 40 29 156 l7 133 51 -103 c136 -272 297 -444 490 -527 25 -10 46
-25 46 -32 0 -7 9 -170 20 -363 26 -455 68 -1189 75 -1335 7 -131 22 -160 80
-160 58 0 482 59 507 71 14 6 32 22 39 35 14 27 17 0 -64 668 -31 252 -54 463
-51 467 26 43 110 -92 553 -889 l152 -274 -11 -196 c-16 -285 -39 -692 -50
-877 -5 -88 -17 -332 -26 -543 -16 -352 -16 -384 -1 -399 13 -13 65 -19 286
-32 255 -14 272 -14 288 2 15 15 20 66 36 364 10 191 19 349 21 350 3 3 379
-37 383 -40 1 -1 -5 -29 -14 -62 -24 -98 -21 -293 6 -390 131 -466 656 -674
1125 -445 296 145 465 398 454 683 l-3 84 54 -48 c162 -145 425 -185 708 -109
70 19 80 19 324 5 190 -12 255 -13 265 -4 18 15 18 23 -1 -314 -16 -276 -14
-300 22 -311 10 -2 134 -10 276 -17 219 -10 261 -10 272 2 11 11 19 104 34
394 11 209 23 418 27 464 l6 83 40 -6 c112 -18 198 -88 238 -192 19 -49 24
-88 30 -229 8 -189 28 -268 90 -365 87 -135 295 -268 384 -246 25 6 239 158
289 204 15 14 27 34 27 44 0 10 -27 47 -59 83 -93 102 -115 185 -123 457 l-3
108 30 -29 c82 -76 209 -140 343 -172 165 -40 392 -15 540 60 l57 29 45 -35
c59 -46 119 -76 204 -102 90 -28 137 -27 163 2 27 29 175 371 168 389 -3 7
-26 24 -51 38 -54 28 -86 72 -111 155 -15 51 -18 93 -17 270 1 193 12 367 61
1024 l17 233 -21 18 c-23 18 -182 30 -409 30 -120 0 -157 -8 -172 -37 -6 -10
-20 -169 -32 -353 -12 -184 -24 -337 -25 -338 -2 -2 -43 7 -92 19 -112 29
-294 32 -393 6 -194 -51 -343 -175 -436 -362 -60 -122 -84 -222 -84 -351 l0
-103 -67 51 c-192 146 -473 212 -743 177 -123 -16 -460 -19 -460 -4 0 6 7 137
15 292 8 155 12 288 9 297 -3 8 -12 17 -20 20 -9 3 -133 13 -277 21 -250 15
-262 15 -279 -3 -16 -16 -21 -64 -42 -448 -12 -237 -26 -435 -29 -441 -10 -17
-115 -45 -166 -45 -81 0 -134 41 -165 129 -19 55 -24 104 -42 434 -8 163 -19
310 -23 325 -13 49 -39 55 -207 43 -243 -16 -315 -25 -333 -43 -14 -15 -16
-55 -15 -369 0 -194 4 -379 8 -412 l7 -60 -63 64 c-140 142 -302 214 -514 228
-263 17 -495 -61 -660 -223 -46 -45 -84 -79 -84 -76 0 3 7 62 16 130 17 131
14 166 -14 181 -9 5 -118 19 -241 32 l-223 23 7 95 c4 53 8 97 9 98 1 1 134
-5 297 -14 162 -9 307 -13 321 -10 14 4 29 15 33 24 4 10 13 130 21 267 14
255 12 279 -23 290 -10 3 -155 12 -323 21 -168 10 -307 18 -308 20 -2 2 6 160
17 352 12 191 21 372 21 401 0 28 5 52 10 52 6 0 10 -17 10 -38 0 -61 36 -187
75 -260 131 -250 376 -392 674 -392 397 0 760 264 835 607 19 87 20 206 2 291
l-13 62 62 0 62 0 7 -117 c21 -345 88 -551 217 -667 64 -58 170 -110 276 -137
124 -31 121 -33 215 191 43 101 78 192 78 202 0 11 -18 27 -47 42 -27 13 -56
32 -65 43 -46 50 -74 161 -81 322 l-4 84 93 -6 c136 -9 129 -22 149 252 19
271 26 255 -107 265 -50 3 -93 8 -96 10 -2 3 0 78 6 167 10 168 6 204 -27 213
-30 9 -511 28 -536 22 -35 -9 -42 -34 -50 -172 -3 -65 -8 -137 -11 -159 l-4
-40 -93 5 c-103 6 -126 -5 -128 -57 -1 -16 -4 -76 -8 -135 l-6 -107 -45 57
c-160 200 -448 302 -744 263 -343 -46 -586 -248 -666 -552 l-19 -74 0 55 c-1
31 6 188 14 350 30 621 30 555 6 579 -12 12 -30 21 -42 21 -12 0 -126 7 -255
15 -249 17 -269 15 -279 -28 -4 -17 -35 -955 -35 -1049 0 -45 -34 -6 -115 130
-137 229 -290 474 -388 620 -49 74 -87 135 -85 136 2 1 33 21 69 44 84 54 213
186 274 282 27 41 49 76 50 78 2 2 25 -4 51 -12 33 -10 158 -20 389 -30 187
-9 373 -19 414 -22 l74 -7 -7 -128 c-8 -133 -3 -160 31 -174 36 -15 574 -44
598 -33 33 15 36 25 46 168 4 69 8 126 9 128 0 2 48 0 108 -4 154 -9 148 -19
161 256 6 118 11 234 11 258 0 66 -18 78 -141 86 -57 4 -105 9 -107 11 -2 1 5
145 14 319 l18 317 -22 21 c-20 21 -38 23 -301 36 -153 8 -290 12 -305 8 -14
-3 -30 -15 -36 -26 -8 -16 -40 -485 -40 -602 l0 -38 -57 1 c-97 1 -165 14
-179 34 -8 10 -14 34 -14 53 0 18 50 308 110 644 61 336 110 619 110 628 0 40
-31 49 -306 90 -148 22 -284 41 -302 42 -64 3 -65 0 -137 -432 -36 -217 -67
-396 -69 -397 -1 -2 -8 16 -15 39 -104 349 -405 610 -788 684 -115 22 -311 22
-418 -1 -466 -98 -734 -438 -777 -987 -11 -142 -2 -361 18 -413 6 -16 0 -16
-72 -10 -43 4 -80 9 -82 10 -2 2 5 145 14 320 l17 317 -21 20 c-19 19 -41 22
-249 34 -322 19 -359 18 -382 -5 -22 -22 -26 -59 -42 -400 l-12 -253 -95 6
c-52 4 -105 12 -118 18 -49 22 -51 4 76 708 124 691 117 638 94 660 -15 16
-69 27 -289 60 -149 22 -279 41 -291 43 -11 2 -30 0 -40 -4z m2556 -759 c60
-17 127 -66 165 -122 102 -152 132 -475 65 -717 -67 -242 -221 -354 -378 -275
-124 62 -201 243 -232 545 -18 177 8 332 72 438 70 116 186 165 308 131z
m2503 -2363 c51 -22 102 -80 121 -139 57 -175 10 -331 -119 -393 -49 -24 -64
-27 -125 -23 -160 12 -270 142 -258 309 9 125 77 221 178 254 52 17 151 13
203 -8z m-926 -204 c-3 -10 -5 -2 -5 17 0 19 2 27 5 18 2 -10 2 -26 0 -35z
m5399 -1684 c25 -7 60 -26 78 -43 l33 -31 7 -160 c3 -88 9 -181 12 -207 l6
-47 -72 -22 c-244 -74 -426 100 -354 341 12 39 29 66 67 104 71 71 130 88 223
65z m-4234 -592 c81 -34 135 -123 145 -236 11 -129 -35 -236 -124 -288 -42
-24 -58 -28 -128 -28 -69 0 -86 4 -127 27 -102 60 -155 164 -145 284 9 121 78
217 177 249 52 17 151 13 202 -8z"/>
<path d="M14755 8334 c-276 -39 -444 -100 -641 -232 -310 -209 -520 -543 -581
-927 -19 -121 -13 -361 12 -475 106 -482 444 -860 908 -1015 235 -79 541 -88
782 -24 51 14 112 76 121 124 9 52 -1 102 -31 141 -50 65 -112 78 -237 50
-266 -60 -573 5 -802 168 -78 56 -186 164 -242 242 -59 82 -127 229 -156 334
-20 75 -23 107 -22 265 0 166 3 187 28 270 86 283 271 506 526 635 533 269
1191 20 1409 -533 57 -145 66 -197 65 -387 0 -160 -3 -183 -28 -265 -50 -165
-124 -299 -234 -418 -83 -91 -99 -145 -63 -222 27 -58 745 -771 786 -780 17
-4 36 -9 44 -11 23 -7 89 16 121 42 56 48 75 121 50 191 -6 15 -146 164 -312
329 l-301 302 52 78 c363 549 292 1264 -170 1725 -249 248 -569 385 -924 394
-71 2 -143 1 -160 -1z"/>
<path d="M11091 8254 c-185 -49 -333 -213 -364 -401 -6 -38 -12 -70 -13 -72
-2 -1 -18 9 -37 23 l-34 26 -17 -24 c-9 -14 -16 -28 -16 -30 0 -11 138 -116
152 -116 7 0 37 36 65 80 l52 80 -22 15 c-28 19 -37 19 -54 -2 -25 -32 -6 54
28 125 82 169 275 270 459 242 170 -27 303 -145 355 -315 19 -63 24 -70 50
-73 l28 -4 -6 56 c-12 123 -128 282 -253 348 -105 56 -257 73 -373 42z"/>
<path d="M11662 7708 c2 -27 8 -34 29 -36 22 -3 28 2 33 24 8 30 -5 44 -42 44
-20 0 -23 -4 -20 -32z"/>
<path d="M12166 7649 c-196 -67 -326 -246 -326 -449 0 -185 98 -344 262 -424
191 -93 408 -57 550 92 295 309 82 803 -346 802 -55 -1 -100 -7 -140 -21z"/>
<path d="M11622 7586 c-10 -24 -9 -27 18 -41 29 -15 30 -15 45 16 19 36 18 37
-21 45 -25 5 -32 2 -42 -20z"/>
<path d="M10853 7480 c-28 -22 -29 -32 -3 -55 20 -18 21 -18 46 6 l25 25 -23
21 c-22 21 -24 21 -45 3z"/>
<path d="M11555 7480 c-17 -19 -17 -21 0 -40 24 -26 39 -25 59 5 15 23 15 25
-6 40 -29 19 -31 19 -53 -5z"/>
<path d="M10945 7384 c-14 -22 -15 -28 -4 -36 41 -27 44 -27 61 2 16 28 16 29
-7 44 -31 20 -30 21 -50 -10z"/>
<path d="M11457 7396 c-18 -14 -18 -16 -2 -40 20 -31 19 -30 50 -10 23 15 23
17 8 40 -17 27 -30 29 -56 10z"/>
<path d="M11066 7325 c-8 -32 -3 -41 28 -47 40 -8 53 55 14 66 -34 9 -35 8
-42 -19z"/>
<path d="M11333 7344 c-18 -8 0 -59 23 -62 31 -4 46 12 38 41 -6 26 -29 34
-61 21z"/>
<path d="M11200 7295 c0 -32 2 -35 30 -35 28 0 30 3 30 35 0 32 -2 35 -30 35
-28 0 -30 -3 -30 -35z"/>
<path d="M3492 6726 c-54 -6 -96 -16 -101 -24 -11 -18 34 -353 49 -362 6 -4
34 -3 62 2 27 5 52 7 55 4 2 -2 -28 -47 -67 -100 -39 -52 -70 -103 -68 -112 5
-26 154 -116 186 -112 21 2 40 24 99 117 40 63 72 120 70 125 -2 6 -37 31 -78
55 -66 41 -71 46 -49 51 21 5 25 13 28 47 3 36 7 42 30 47 50 9 273 28 278 23
7 -7 -19 -101 -31 -109 -5 -4 -33 -8 -61 -8 -33 0 -56 -5 -64 -15 -19 -23 -3
-251 20 -292 l19 -32 -89 6 c-107 7 -120 0 -120 -63 l0 -44 -99 0 c-58 0 -103
-4 -106 -10 -10 -16 -18 -155 -11 -184 l6 -26 110 0 110 0 0 -159 c0 -118 3
-160 13 -163 6 -3 62 -1 122 4 147 12 145 9 145 184 l0 134 130 0 c118 0 130
2 140 19 14 28 13 184 -2 199 -8 8 -54 12 -140 12 l-128 0 0 43 0 43 133 18
c200 27 187 23 187 65 -1 55 -16 123 -30 131 -6 4 -44 1 -83 -6 -40 -8 -75
-14 -79 -14 -5 0 -8 30 -8 66 0 58 2 65 17 60 9 -4 42 -9 72 -13 45 -4 59 -2
70 11 20 24 53 204 46 254 -8 52 -52 106 -99 122 -31 10 -216 -3 -486 -35 -43
-5 -46 -4 -57 25 -7 19 -18 30 -30 29 -10 -1 -60 -7 -111 -13z"/>
<path d="M4706 6688 c-8 -13 -25 -77 -38 -143 -18 -100 -22 -154 -22 -320 0
-184 3 -208 27 -297 72 -270 247 -451 474 -490 57 -9 74 -9 86 1 18 15 107
222 107 250 0 19 -18 31 -48 31 -36 0 -139 59 -179 102 -80 88 -113 189 -120
373 -5 123 0 191 29 382 6 45 9 85 6 89 -6 5 -259 43 -295 44 -7 0 -19 -10
-27 -22z"/>
<path d="M3018 6679 c-15 -8 -18 -25 -18 -94 l0 -84 -47 -3 -48 -3 3 -120 c2
-79 7 -122 15 -127 7 -4 29 -8 50 -8 l37 0 0 -85 0 -84 -37 -10 c-21 -5 -50
-13 -66 -17 -15 -3 -29 -9 -32 -13 -6 -11 45 -204 62 -230 12 -19 21 -22 50
-18 l35 6 -7 -42 c-3 -23 -20 -91 -37 -150 -18 -64 -27 -112 -22 -117 5 -5 65
-19 133 -31 161 -30 167 -27 199 91 13 51 26 133 30 204 l7 119 40 12 40 11
-2 84 c-1 47 -4 104 -8 128 l-6 44 -40 -7 -39 -7 0 55 c0 56 0 56 33 59 l32 3
3 105 c4 139 1 150 -43 150 l-34 0 -3 93 -3 92 -130 2 c-76 2 -137 -2 -147 -8z"/>
<path d="M1886 6614 c-3 -9 -6 -33 -6 -55 l0 -39 -99 0 c-75 0 -102 -4 -111
-15 -9 -11 -10 -45 -5 -130 l7 -115 109 0 109 0 0 -45 0 -45 -57 -25 c-176
-78 -276 -232 -260 -402 11 -115 66 -190 177 -242 46 -21 70 -26 145 -26 100
0 164 21 218 73 57 54 67 88 67 232 0 149 -1 147 85 106 56 -26 108 -77 124
-119 15 -40 13 -145 -4 -192 -8 -22 -15 -46 -15 -53 0 -15 198 -112 228 -112
40 0 95 101 114 208 31 181 -69 382 -241 486 -57 35 -182 80 -253 91 -35 5
-38 8 -38 40 l0 34 58 3 57 3 0 125 0 125 -57 3 -58 3 0 37 c0 21 -5 43 -12
50 -8 8 -55 12 -144 12 -111 0 -133 -3 -138 -16z m-7 -860 c-30 -36 -82 6 -72
58 3 16 22 42 42 60 l36 32 3 -68 c2 -41 -2 -73 -9 -82z"/>
<path d="M6295 6566 c-188 -37 -320 -126 -384 -259 -76 -157 -62 -341 44 -565
65 -138 78 -152 129 -152 93 0 366 104 429 163 15 14 27 36 27 49 0 13 -19 76
-41 141 -37 103 -44 117 -65 117 -12 0 -66 -25 -119 -56 -116 -67 -138 -67
-156 -1 -29 107 14 200 116 252 52 27 68 30 149 30 74 0 100 -4 141 -23 105
-49 175 -155 175 -268 0 -120 -49 -225 -160 -347 -44 -48 -50 -60 -40 -72 19
-23 228 -125 255 -125 43 0 169 160 227 288 158 348 -22 723 -391 817 -88 22
-250 28 -336 11z"/>
<path d="M2460 6420 c-41 -33 -76 -64 -78 -70 -5 -13 219 -280 234 -280 7 0
53 36 103 81 90 79 91 80 77 107 -15 27 -132 145 -194 195 -19 15 -41 27 -50
27 -9 0 -51 -27 -92 -60z"/>
<path d="M3402 5608 c-34 -40 -62 -75 -62 -79 0 -9 104 -90 135 -106 11 -6 26
-8 33 -6 19 7 112 133 112 152 -1 15 -128 111 -147 111 -5 0 -37 -32 -71 -72z"/>
<path d="M4043 5624 c-35 -31 -63 -61 -63 -68 0 -7 31 -43 70 -80 59 -57 72
-66 89 -57 28 16 121 123 121 142 0 18 -120 119 -141 119 -8 0 -42 -25 -76
-56z"/>
<path d="M6941 5170 c-28 -22 -51 -43 -51 -46 0 -17 115 -134 132 -134 25 0
118 80 118 101 0 19 -112 119 -133 119 -9 0 -38 -18 -66 -40z"/>
<path d="M6745 5195 c-5 -2 -23 -6 -39 -10 -26 -5 -28 -9 -22 -40 4 -18 13
-56 22 -84 l15 -51 67 0 c43 0 75 5 87 14 20 14 20 15 0 93 l-20 78 -50 2
c-27 1 -54 0 -60 -2z"/>
<path d="M3775 5131 c-85 -40 -135 -120 -135 -218 1 -135 100 -233 235 -233
137 0 235 98 235 235 0 99 -55 183 -142 219 -51 22 -143 20 -193 -3z m139
-142 c47 -22 58 -95 20 -133 -38 -38 -111 -27 -133 20 -35 78 35 148 113 113z"/>
<path d="M6245 5057 c-50 -40 -91 -81 -93 -91 -2 -10 10 -33 30 -53 58 -61
215 -193 229 -193 8 0 61 41 119 90 58 49 108 90 113 90 18 0 4 51 -22 78 -60
60 -220 152 -264 152 -14 0 -58 -29 -112 -73z"/>
<path d="M5937 4773 c-60 -25 -111 -52 -114 -59 -10 -26 168 -304 194 -303 10
0 77 26 148 58 147 66 153 73 111 145 -39 67 -180 206 -208 206 -12 0 -72 -21
-131 -47z"/>
<path d="M3109 4618 c-99 -95 -182 -183 -185 -195 -7 -25 42 -96 122 -180 37
-39 44 -43 68 -33 31 11 155 93 239 157 l57 44 56 -25 c96 -44 393 -231 551
-348 29 -21 60 -38 70 -38 21 0 158 233 150 254 -13 34 -288 234 -469 342
-208 123 -367 194 -438 194 -39 0 -49 -8 -221 -172z"/>
<path d="M8195 4780 c-10 -16 15 -147 30 -160 8 -6 42 -10 82 -8 l68 3 -3 63
c-2 35 -7 74 -12 88 -9 22 -14 24 -84 24 -41 0 -78 -5 -81 -10z"/>
<path d="M8448 4750 c-27 -17 -48 -35 -48 -41 0 -22 94 -139 112 -139 20 0
114 65 121 83 7 20 -92 127 -116 127 -12 0 -43 -14 -69 -30z"/>
<path d="M4487 4703 c-13 -12 -8 -298 5 -311 17 -17 1019 -17 1036 0 8 8 12
57 12 153 0 96 -4 145 -12 153 -9 9 -139 12 -523 12 -282 0 -515 -3 -518 -7z"/>
<path d="M7753 4688 c-5 -7 -22 -45 -37 -84 l-27 -71 -79 23 c-145 42 -137 44
-197 -71 -29 -55 -52 -109 -50 -119 2 -16 23 -26 106 -50 58 -17 106 -36 108
-42 4 -13 -91 -235 -148 -344 -21 -42 -39 -83 -39 -91 0 -23 238 -113 256 -98
17 14 87 136 154 267 57 114 62 116 103 38 15 -30 21 -59 21 -106 0 -78 -27
-138 -98 -217 -25 -28 -46 -55 -46 -59 0 -16 139 -161 160 -167 25 -6 77 31
146 104 93 100 141 209 151 345 5 67 2 92 -17 148 -36 109 -107 202 -219 287
l-34 25 27 88 c41 133 41 135 -79 168 -143 39 -151 41 -162 26z"/>
<path d="M6845 4583 c-118 -68 -419 -214 -622 -302 -105 -45 -179 -83 -181
-92 -2 -14 125 -250 147 -272 19 -19 309 92 481 185 165 89 410 255 410 279 0
10 -115 215 -132 237 -14 17 -13 17 -103 -35z"/>
<path d="M8150 4565 c-24 -29 -81 -159 -78 -179 4 -28 384 -229 408 -216 14 8
110 216 110 239 0 27 -191 114 -315 144 -110 27 -112 27 -125 12z"/>
<path d="M1630 3552 l-25 -20 -8 -323 c-5 -213 -4 -332 2 -346 9 -19 19 -22
78 -25 l68 -3 -119 -65 c-66 -36 -121 -71 -124 -78 -2 -7 27 -44 65 -83 50
-51 77 -71 95 -71 33 0 278 159 278 180 0 9 -23 40 -52 69 l-52 53 91 0 c106
0 98 9 108 -125 8 -113 19 -149 50 -163 32 -15 413 14 433 32 10 10 10 31 3
101 -6 48 -13 90 -16 93 -3 3 -51 0 -107 -6 -111 -13 -121 -10 -116 38 3 23 7
25 61 28 87 5 88 6 104 300 8 136 11 266 8 289 -3 24 -18 56 -32 73 -49 59
-52 60 -425 67 -335 6 -344 5 -368 -15z m518 -198 c12 -2 26 -15 30 -27 4 -12
5 -92 2 -177 l-5 -155 -173 -3 -173 -2 3 37 3 38 128 6 c70 3 132 10 137 15 5
5 13 25 16 43 l7 34 -141 -5 -142 -5 0 37 0 36 106 -13 c76 -10 110 -11 119
-3 14 12 29 59 21 67 -3 4 -213 33 -238 33 -5 0 -8 14 -8 31 l0 30 143 -6 c78
-3 152 -8 165 -11z"/>
<path d="M6170 3551 l-75 -6 3 -37 c3 -45 10 -43 -152 -27 -69 7 -112 7 -118
1 -5 -5 -12 -43 -15 -85 -7 -90 -22 -81 166 -97 68 -6 127 -13 132 -16 5 -3 9
-18 9 -35 l0 -29 -80 0 c-92 0 -93 -1 -88 -105 l3 -60 88 -3 87 -3 0 -44 0
-44 -47 -7 c-70 -10 -150 -42 -188 -75 -98 -87 -77 -242 42 -300 69 -34 214
-34 290 0 61 27 125 92 142 144 12 34 13 35 49 29 20 -4 55 -7 77 -7 l40 0 22
90 c15 56 19 93 13 99 -11 11 -89 25 -147 25 l-43 1 0 45 0 44 58 3 57 3 0 80
0 80 -62 3 c-59 3 -63 4 -63 27 0 23 2 24 48 18 61 -7 70 4 73 91 3 80 -2 86
-83 86 l-57 0 -6 48 c-11 81 3 76 -175 63z m-30 -766 c0 -60 -91 -91 -98 -33
-3 21 3 30 25 42 45 24 73 21 73 -9z"/>
<path d="M5283 3482 c-56 -15 -107 -32 -113 -38 -7 -7 -3 -31 14 -80 56 -166
70 -249 70 -419 0 -153 -1 -163 -28 -228 -16 -37 -26 -70 -23 -73 7 -8 189
-74 203 -74 19 0 52 44 84 111 81 175 78 406 -11 679 -39 119 -55 150 -77 149
-9 0 -63 -13 -119 -27z"/>
<path d="M8130 3408 c-103 -221 -285 -708 -278 -746 3 -18 119 -49 190 -51 35
-1 39 2 59 43 24 52 104 131 154 152 80 33 133 9 173 -79 62 -136 162 -169
325 -106 79 30 83 41 49 136 l-29 78 -52 -3 c-60 -4 -83 11 -107 68 -20 47
-61 89 -109 111 -50 23 -174 25 -234 4 -22 -8 -41 -13 -41 -11 0 4 69 175 136
339 25 59 42 112 39 117 -6 9 -170 50 -204 50 -18 0 -31 -18 -71 -102z"/>
<path d="M3983 3472 c-6 -4 -19 -33 -28 -66 l-17 -58 -37 6 c-20 3 -59 9 -86
12 -57 7 -53 12 -101 -114 l-23 -63 22 -8 c12 -5 51 -14 87 -21 36 -6 67 -14
69 -16 6 -6 -43 -158 -85 -263 -19 -47 -30 -89 -26 -93 5 -5 50 -20 102 -35
89 -26 93 -26 106 -8 11 15 39 80 114 263 13 30 21 28 49 -13 49 -72 36 -167
-35 -261 l-34 -45 27 -25 c16 -15 47 -42 71 -62 37 -30 46 -34 67 -24 34 16
103 105 139 182 28 58 31 75 31 155 -1 78 -4 98 -29 147 -31 65 -92 131 -161
174 -50 32 -50 32 -30 124 9 43 10 69 4 77 -6 6 -42 17 -82 23 -40 6 -79 13
-87 16 -8 2 -20 0 -27 -4z"/>
<path d="M7411 3466 c-6 -8 -14 -51 -18 -97 -3 -46 -10 -90 -16 -96 -6 -9 -39
-13 -98 -13 l-88 0 -3 78 -3 77 -110 3 c-131 3 -135 1 -135 -99 l0 -66 -46 -7
c-26 -3 -60 -6 -75 -6 l-29 0 0 -89 c0 -49 3 -96 6 -105 5 -13 23 -16 89 -16
l83 0 7 -37 c21 -114 104 -270 186 -352 46 -46 133 -101 160 -101 22 0 140
125 134 142 -3 7 -24 26 -46 43 -45 33 -107 110 -137 170 -16 32 -52 137 -52
152 0 2 34 3 75 3 l75 0 -6 -43 c-4 -30 -2 -46 7 -54 8 -6 57 -16 109 -22 113
-13 119 -9 127 72 l6 56 71 3 71 3 0 100 0 100 -62 3 -62 3 -3 92 -3 92 -60 7
c-33 4 -79 9 -102 12 -28 4 -45 1 -52 -8z"/>
<path d="M4262 3348 c-36 -103 -43 -95 138 -168 99 -39 163 -60 169 -55 11 13
61 165 61 186 0 30 -214 99 -304 99 l-41 0 -23 -62z"/>
<path d="M2900 3374 c-111 -14 -234 -36 -252 -45 -18 -10 -19 -17 -13 -107 4
-53 11 -101 16 -106 5 -6 50 -2 111 10 61 11 150 18 218 19 105 0 120 -2 171
-27 75 -37 98 -83 75 -149 -21 -61 -65 -117 -133 -172 -35 -28 -63 -55 -63
-60 0 -18 105 -136 127 -143 56 -16 255 160 311 276 56 114 62 233 18 317 -38
75 -132 138 -246 168 -62 16 -269 28 -340 19z"/>
<path d="M4836 3342 c-12 -20 -47 -219 -44 -256 l3 -40 95 -18 c106 -19 156
-22 164 -10 9 15 39 269 34 284 -4 9 -40 20 -104 31 -110 19 -140 21 -148 9z"/>
<path d="M11641 2946 c-6 -7 -26 -60 -44 -117 l-33 -104 -119 -5 c-66 -3 -126
-9 -132 -13 -20 -13 -16 -65 6 -77 13 -6 186 -10 494 -10 446 0 475 1 490 18
21 23 21 33 3 58 -12 16 -31 20 -137 24 l-123 5 -30 101 c-17 56 -37 108 -45
117 -11 15 -36 17 -166 17 -117 0 -155 -3 -164 -14z m268 -99 c5 -13 16 -47
25 -75 l15 -52 -144 0 -144 0 20 63 c12 34 22 68 25 75 2 8 31 12 99 12 91 0
96 -1 104 -23z"/>
<path d="M11351 2543 c-8 -17 22 -757 34 -831 7 -39 54 -95 93 -111 20 -8 120
-11 343 -9 313 3 314 3 348 27 18 13 40 39 47 58 21 50 61 848 44 868 -15 18
-66 20 -76 4 -6 -11 -43 -653 -44 -772 0 -37 -5 -53 -25 -72 l-24 -25 -284 0
c-261 0 -287 2 -307 18 -22 18 -23 27 -42 418 -10 219 -23 409 -28 422 -12 28
-65 31 -79 5z"/>
<path d="M11648 2439 c-16 -9 -18 -33 -18 -272 0 -276 2 -287 45 -287 43 0 45
11 45 281 0 255 0 258 -22 273 -26 19 -27 19 -50 5z"/>
<path d="M11912 2434 c-22 -15 -22 -18 -22 -265 0 -153 4 -258 10 -270 7 -12
21 -19 40 -19 19 0 33 7 40 19 6 12 10 115 10 265 0 233 -1 247 -20 266 -24
24 -29 24 -58 4z"/>
</g>
</svg>
